<svg width="35" height="40" viewBox="0 0 35 40" fill="none" xmlns="http://www.w3.org/2000/svg">
<mask id="path-1-inside-1_193:4055" fill="white">
<path d="M2.661 39.9463C2.661 39.9172 2.06234 35.2699 1.33064 29.619C0.598951 23.9682 0.000161511 19.2587 6.70768e-07 19.1536C-0.000465084 18.8474 0.241645 18.4548 0.650143 18.0994C0.938836 17.8483 1.23758 17.6852 1.89659 17.419C2.95798 16.9903 13.6572 13.1451 13.7905 13.1445C13.9236 13.1438 14.1223 12.8279 14.5656 11.9118C15.0005 11.0131 15.0912 10.512 14.9495 9.78926C14.6721 8.3736 13.7401 7.43447 11.6343 6.44869C10.6286 5.9779 9.85064 5.71916 8.76831 5.49556C8.14888 5.36759 6.11255 5.30974 5.91679 5.41455C5.76286 5.49697 5.527 5.42571 5.527 5.29682C5.527 5.04487 7.04947 4.19731 8.01769 3.91027C9.35861 3.51274 9.70396 3.49469 11.3614 3.73551C12.5094 3.90233 13.7627 3.76441 14.1452 3.42906C14.2126 3.36999 14.4779 3.02612 14.7348 2.66496C15.2702 1.91214 15.8811 1.31148 16.6221 0.809509C17.2711 0.369888 17.4857 0.280566 18.2771 0.120668C19.1311 -0.0518888 19.6606 -0.0417682 20.6766 0.166468C22.7476 0.591012 24.2654 1.79516 25.2487 3.79385C25.6936 4.69835 25.8991 5.39147 26 6.32857C26.1454 7.67874 26.4175 8.33976 27.158 9.14156C27.7364 9.76784 28.0459 10.2285 28.3071 10.8519C28.7585 11.9292 30.3233 16.0638 30.3161 16.16C30.3002 16.3719 25.5704 31.6104 25.4956 31.6907C25.4528 31.7366 21.9834 33.3021 17.7858 35.1695L10.1538 38.5649L9.74504 38.4841C8.81889 38.3012 6.58621 38.5226 5.14719 38.9401C4.37786 39.1633 3.11275 39.7017 2.96036 39.8707C2.84432 39.9995 2.661 40.0457 2.661 39.9462V39.9463ZM3.55703 39.0863L4.00209 38.8927L3.91375 38.2985C3.86516 37.9717 3.54585 35.8547 3.20416 33.594C2.24238 27.2305 2.02699 25.7136 1.74259 23.3009C1.72372 23.1408 1.73273 23.0098 1.76261 23.0098C1.86582 23.0098 2.37487 26.1111 3.48304 33.4912C3.82533 35.7707 4.14256 37.8824 4.18799 38.1839C4.23342 38.4853 4.29995 38.7318 4.33583 38.7318C4.53894 38.7315 5.79995 38.3189 5.79995 38.253C5.79995 38.2097 5.44624 36.4654 5.01392 34.377C3.27241 25.9638 2.34002 21.1855 2.42353 21.1017C2.43978 21.0854 2.46802 21.115 2.4863 21.1675C2.64671 21.6282 3.75992 26.7721 4.59737 30.9222C5.09226 33.3748 6.08972 38.2468 6.10022 38.2627C6.10393 38.2684 6.33733 38.2315 6.61881 38.1807C6.90029 38.1299 7.2611 38.0867 7.42061 38.0847C7.58012 38.0828 7.71062 38.052 7.71062 38.0163C7.71062 37.952 5.4501 29.3097 4.74411 26.6748C4.39019 25.354 4.01749 23.8116 3.91816 23.2568C3.88428 23.0675 3.89257 23.0037 3.94665 23.0373C4.03345 23.0912 4.37896 24.1604 4.70146 25.3732C5.07928 26.7941 6.29204 31.4098 7.17171 34.775L8.01769 38.0112L8.75125 38.0118C9.33123 38.0124 9.48481 37.9926 9.48481 37.9176C9.48481 37.6892 3.79758 19.3165 3.64705 19.0586C3.43167 18.6896 3.20262 18.5127 2.7757 18.3854C2.27739 18.2368 1.99718 18.2579 1.53213 18.4788C1.05992 18.703 0.785375 18.9938 0.682014 19.3792C0.612605 19.638 0.61267 21.0889 0.682083 21.0914C0.700846 21.092 0.720874 21.2697 0.726588 21.486C0.735083 21.8079 2.84241 38.34 2.9713 39.0959C2.99259 39.2207 3.03295 39.3132 3.06099 39.3014C3.08902 39.2896 3.31224 39.1927 3.55702 39.0862L3.55703 39.0863ZM17.3902 34.9046C20.481 33.5293 23.0211 32.3927 23.0351 32.3786C23.123 32.2904 23.5448 29.8365 23.7505 28.2162C23.9351 26.7619 24.0079 23.5937 23.8875 22.2515C23.5306 18.2739 22.3917 15.1768 20.2992 12.4941C19.7578 11.8 19.5473 11.6069 19.216 11.5005C18.7752 11.3589 18.3436 11.4612 16.3769 12.1731C14.3398 12.9104 13.9931 13.057 13.9162 13.2135C13.8885 13.27 13.6767 13.7564 13.4456 14.2944C10.8478 20.3418 9.47515 25.1576 9.07226 29.6383C8.96194 30.8652 9.01974 33.6886 9.17568 34.6901C9.27277 35.3136 9.65345 36.7139 10.0429 37.88L10.1244 38.1242L10.9476 37.7646C11.4004 37.5669 14.2995 36.2799 17.3902 34.9046ZM19.3133 5.43686C19.529 5.32491 19.7205 5.01931 19.7205 4.78722C19.7205 4.42412 19.3316 4.03365 18.9699 4.03365C18.6082 4.03365 18.2193 4.42412 18.2193 4.78722C18.2193 5.0124 18.4076 5.32192 18.6125 5.43355C18.854 5.5651 19.0644 5.56609 19.3133 5.43667V5.43686ZM26.8181 37.9307C26.51 37.5048 26.2358 37.1621 26.2088 37.1692C26.1819 37.1765 25.6907 37.4944 25.1173 37.8761C23.9938 38.6239 23.8377 38.7107 23.8959 38.5554C23.916 38.5018 25.307 33.9879 26.987 28.5245C28.667 23.0612 30.1642 18.1931 30.3141 17.7066C30.4888 17.1395 30.6057 16.8567 30.6396 16.9188C30.6688 16.972 31.0348 17.9061 31.453 18.9945C31.8712 20.0829 32.2425 21.0281 32.2781 21.0949C32.3217 21.1767 32.3113 21.306 32.2464 21.4906C32.1934 21.6414 31.6842 23.4553 31.1148 25.5214C28.7157 34.2269 27.488 38.5952 27.422 38.6615C27.398 38.6855 27.1263 38.3567 26.8181 37.9307H26.8181ZM31.5019 25.7394C32.0771 23.6612 32.5593 21.9493 32.5735 21.9351C32.5877 21.9208 32.6698 22.1029 32.756 22.3396C33.1961 23.5477 34.5468 27.0252 34.6704 27.2684C34.7484 27.4219 34.7867 27.5703 34.7555 27.5983C34.7023 27.6459 30.5334 29.5179 30.4805 29.5179C30.467 29.5179 30.9267 27.8175 31.5019 25.7394Z"/>
</mask>
<path d="M2.661 39.9463C2.661 39.9172 2.06234 35.2699 1.33064 29.619C0.598951 23.9682 0.000161511 19.2587 6.70768e-07 19.1536C-0.000465084 18.8474 0.241645 18.4548 0.650143 18.0994C0.938836 17.8483 1.23758 17.6852 1.89659 17.419C2.95798 16.9903 13.6572 13.1451 13.7905 13.1445C13.9236 13.1438 14.1223 12.8279 14.5656 11.9118C15.0005 11.0131 15.0912 10.512 14.9495 9.78926C14.6721 8.3736 13.7401 7.43447 11.6343 6.44869C10.6286 5.9779 9.85064 5.71916 8.76831 5.49556C8.14888 5.36759 6.11255 5.30974 5.91679 5.41455C5.76286 5.49697 5.527 5.42571 5.527 5.29682C5.527 5.04487 7.04947 4.19731 8.01769 3.91027C9.35861 3.51274 9.70396 3.49469 11.3614 3.73551C12.5094 3.90233 13.7627 3.76441 14.1452 3.42906C14.2126 3.36999 14.4779 3.02612 14.7348 2.66496C15.2702 1.91214 15.8811 1.31148 16.6221 0.809509C17.2711 0.369888 17.4857 0.280566 18.2771 0.120668C19.1311 -0.0518888 19.6606 -0.0417682 20.6766 0.166468C22.7476 0.591012 24.2654 1.79516 25.2487 3.79385C25.6936 4.69835 25.8991 5.39147 26 6.32857C26.1454 7.67874 26.4175 8.33976 27.158 9.14156C27.7364 9.76784 28.0459 10.2285 28.3071 10.8519C28.7585 11.9292 30.3233 16.0638 30.3161 16.16C30.3002 16.3719 25.5704 31.6104 25.4956 31.6907C25.4528 31.7366 21.9834 33.3021 17.7858 35.1695L10.1538 38.5649L9.74504 38.4841C8.81889 38.3012 6.58621 38.5226 5.14719 38.9401C4.37786 39.1633 3.11275 39.7017 2.96036 39.8707C2.84432 39.9995 2.661 40.0457 2.661 39.9462V39.9463ZM3.55703 39.0863L4.00209 38.8927L3.91375 38.2985C3.86516 37.9717 3.54585 35.8547 3.20416 33.594C2.24238 27.2305 2.02699 25.7136 1.74259 23.3009C1.72372 23.1408 1.73273 23.0098 1.76261 23.0098C1.86582 23.0098 2.37487 26.1111 3.48304 33.4912C3.82533 35.7707 4.14256 37.8824 4.18799 38.1839C4.23342 38.4853 4.29995 38.7318 4.33583 38.7318C4.53894 38.7315 5.79995 38.3189 5.79995 38.253C5.79995 38.2097 5.44624 36.4654 5.01392 34.377C3.27241 25.9638 2.34002 21.1855 2.42353 21.1017C2.43978 21.0854 2.46802 21.115 2.4863 21.1675C2.64671 21.6282 3.75992 26.7721 4.59737 30.9222C5.09226 33.3748 6.08972 38.2468 6.10022 38.2627C6.10393 38.2684 6.33733 38.2315 6.61881 38.1807C6.90029 38.1299 7.2611 38.0867 7.42061 38.0847C7.58012 38.0828 7.71062 38.052 7.71062 38.0163C7.71062 37.952 5.4501 29.3097 4.74411 26.6748C4.39019 25.354 4.01749 23.8116 3.91816 23.2568C3.88428 23.0675 3.89257 23.0037 3.94665 23.0373C4.03345 23.0912 4.37896 24.1604 4.70146 25.3732C5.07928 26.7941 6.29204 31.4098 7.17171 34.775L8.01769 38.0112L8.75125 38.0118C9.33123 38.0124 9.48481 37.9926 9.48481 37.9176C9.48481 37.6892 3.79758 19.3165 3.64705 19.0586C3.43167 18.6896 3.20262 18.5127 2.7757 18.3854C2.27739 18.2368 1.99718 18.2579 1.53213 18.4788C1.05992 18.703 0.785375 18.9938 0.682014 19.3792C0.612605 19.638 0.61267 21.0889 0.682083 21.0914C0.700846 21.092 0.720874 21.2697 0.726588 21.486C0.735083 21.8079 2.84241 38.34 2.9713 39.0959C2.99259 39.2207 3.03295 39.3132 3.06099 39.3014C3.08902 39.2896 3.31224 39.1927 3.55702 39.0862L3.55703 39.0863ZM17.3902 34.9046C20.481 33.5293 23.0211 32.3927 23.0351 32.3786C23.123 32.2904 23.5448 29.8365 23.7505 28.2162C23.9351 26.7619 24.0079 23.5937 23.8875 22.2515C23.5306 18.2739 22.3917 15.1768 20.2992 12.4941C19.7578 11.8 19.5473 11.6069 19.216 11.5005C18.7752 11.3589 18.3436 11.4612 16.3769 12.1731C14.3398 12.9104 13.9931 13.057 13.9162 13.2135C13.8885 13.27 13.6767 13.7564 13.4456 14.2944C10.8478 20.3418 9.47515 25.1576 9.07226 29.6383C8.96194 30.8652 9.01974 33.6886 9.17568 34.6901C9.27277 35.3136 9.65345 36.7139 10.0429 37.88L10.1244 38.1242L10.9476 37.7646C11.4004 37.5669 14.2995 36.2799 17.3902 34.9046ZM19.3133 5.43686C19.529 5.32491 19.7205 5.01931 19.7205 4.78722C19.7205 4.42412 19.3316 4.03365 18.9699 4.03365C18.6082 4.03365 18.2193 4.42412 18.2193 4.78722C18.2193 5.0124 18.4076 5.32192 18.6125 5.43355C18.854 5.5651 19.0644 5.56609 19.3133 5.43667V5.43686ZM26.8181 37.9307C26.51 37.5048 26.2358 37.1621 26.2088 37.1692C26.1819 37.1765 25.6907 37.4944 25.1173 37.8761C23.9938 38.6239 23.8377 38.7107 23.8959 38.5554C23.916 38.5018 25.307 33.9879 26.987 28.5245C28.667 23.0612 30.1642 18.1931 30.3141 17.7066C30.4888 17.1395 30.6057 16.8567 30.6396 16.9188C30.6688 16.972 31.0348 17.9061 31.453 18.9945C31.8712 20.0829 32.2425 21.0281 32.2781 21.0949C32.3217 21.1767 32.3113 21.306 32.2464 21.4906C32.1934 21.6414 31.6842 23.4553 31.1148 25.5214C28.7157 34.2269 27.488 38.5952 27.422 38.6615C27.398 38.6855 27.1263 38.3567 26.8181 37.9307H26.8181ZM31.5019 25.7394C32.0771 23.6612 32.5593 21.9493 32.5735 21.9351C32.5877 21.9208 32.6698 22.1029 32.756 22.3396C33.1961 23.5477 34.5468 27.0252 34.6704 27.2684C34.7484 27.4219 34.7867 27.5703 34.7555 27.5983C34.7023 27.6459 30.5334 29.5179 30.4805 29.5179C30.467 29.5179 30.9267 27.8175 31.5019 25.7394Z" fill="white" stroke="black" stroke-width="2" mask="url(#path-1-inside-1_193:4055)"/>
</svg>
