<svg width="48" height="55" viewBox="0 0 48 55" fill="none" xmlns="http://www.w3.org/2000/svg">
  <path d="M3.65887 54.9261C3.65887 54.8861 2.83571 48.4961 1.82964 40.7261C0.823557 32.9562 0.000222078 26.4807 9.22306e-07 26.3362C-0.000639491 25.9151 0.332262 25.3753 0.893946 24.8867C1.2909 24.5414 1.70167 24.3171 2.60782 23.9511C4.06722 23.3616 18.7786 18.0745 18.962 18.0736C19.145 18.0728 19.4182 17.6384 20.0277 16.3788C20.6257 15.143 20.7503 14.454 20.5556 13.4602C20.1741 11.5137 18.8926 10.2224 15.9972 8.86694C14.6144 8.21961 13.5446 7.86385 12.0564 7.55639C11.2047 7.38044 8.40475 7.30089 8.13558 7.44501C7.92393 7.55833 7.59962 7.46035 7.59962 7.28313C7.59962 6.93669 9.69303 5.7713 11.0243 5.37662C12.8681 4.83002 13.3429 4.8052 15.6219 5.13632C17.2005 5.3657 18.9237 5.17606 19.4497 4.71496C19.5424 4.63374 19.9072 4.16091 20.2603 3.66432C20.9965 2.62919 21.8366 1.80329 22.8554 1.11307C23.7477 0.508595 24.0428 0.385778 25.131 0.165918C26.3053 -0.0713471 27.0334 -0.0574312 28.4304 0.228894C31.278 0.812641 33.3649 2.46835 34.7169 5.21654C35.3288 6.46024 35.6112 7.41327 35.75 8.70178C35.9499 10.5583 36.324 11.4672 37.3423 12.5696C38.1376 13.4308 38.5631 14.0641 38.9223 14.9214C39.5429 16.4027 41.6946 22.0877 41.6847 22.22C41.6628 22.5114 35.1593 43.4644 35.0564 43.5748C34.9976 43.6378 30.2272 45.7904 24.4555 48.3581L13.9614 53.0267L13.3994 52.9156C12.126 52.6641 9.05604 52.9686 7.07739 53.5426C6.01956 53.8496 4.28003 54.5898 4.0705 54.8223C3.91095 54.9993 3.65887 55.0628 3.65887 54.9261V54.9261ZM4.89091 53.7437L5.50288 53.4775L5.38141 52.6605C5.31459 52.2111 4.87554 49.3002 4.40573 46.1917C3.08328 37.4419 2.78711 35.3562 2.39607 32.0388C2.37011 31.8186 2.3825 31.6385 2.42359 31.6385C2.5655 31.6385 3.26545 35.9028 4.78918 46.0504C5.25983 49.1848 5.69602 52.0883 5.75849 52.5028C5.82096 52.9173 5.91244 53.2563 5.96177 53.2562C6.24104 53.2557 7.97494 52.6885 7.97494 52.5978C7.97494 52.5383 7.48858 50.14 6.89414 47.2683C4.49957 35.7003 3.21753 29.1301 3.33235 29.0148C3.35469 28.9924 3.39353 29.0331 3.41867 29.1053C3.63923 29.7388 5.16989 36.8116 6.32138 42.5181C7.00186 45.8903 8.37337 52.5893 8.3878 52.6112C8.3929 52.619 8.71383 52.5683 9.10087 52.4985C9.4879 52.4286 9.98402 52.3692 10.2033 52.3665C10.4227 52.3639 10.6021 52.3214 10.6021 52.2724C10.6021 52.184 7.49389 40.3008 6.52315 36.6779C6.03651 34.8617 5.52404 32.7409 5.38747 31.9781C5.34089 31.7179 5.35228 31.6301 5.42665 31.6763C5.546 31.7504 6.02106 33.2205 6.46451 34.8882C6.98402 36.8419 8.65155 43.1885 9.86111 47.8156L11.0243 52.2654L12.033 52.2662C12.8304 52.2671 13.0416 52.2399 13.0416 52.1367C13.0416 51.8226 5.22167 26.5602 5.01469 26.2056C4.71855 25.6983 4.4036 25.4549 3.81659 25.2799C3.13141 25.0757 2.74613 25.1046 2.10668 25.4083C1.45739 25.7167 1.07989 26.1165 0.937769 26.6464C0.842332 27.0022 0.842421 28.9972 0.937863 29.0007C0.963664 29.0015 0.991202 29.2458 0.999059 29.5433C1.01074 29.9859 3.90831 52.7175 4.08553 53.7568C4.11481 53.9285 4.17031 54.0557 4.20885 54.0394C4.24741 54.0232 4.55433 53.89 4.89091 53.7436L4.89091 53.7437ZM23.9116 47.9938C28.1613 46.1028 31.6541 44.5399 31.6733 44.5206C31.7942 44.3993 32.374 41.0252 32.6569 38.7973C32.9108 36.7976 33.0108 32.4413 32.8453 30.5958C32.3546 25.1266 30.7885 20.8682 27.9114 17.1794C27.167 16.225 26.8776 15.9595 26.422 15.8132C25.8158 15.6185 25.2225 15.7591 22.5182 16.738C19.7172 17.7519 19.2405 17.9534 19.1348 18.1685C19.0966 18.2463 18.8054 18.915 18.4876 19.6547C14.9157 27.97 13.0283 34.5918 12.4744 40.7527C12.3227 42.4397 12.4021 46.3218 12.6166 47.6988C12.7501 48.5562 13.2735 50.4817 13.8089 52.085L13.9211 52.4208L15.053 51.9264C15.6755 51.6545 19.6619 49.8848 23.9116 47.9938V47.9938ZM26.5558 7.47569C26.8523 7.32176 27.1157 6.90155 27.1157 6.58242C27.1157 6.08317 26.5809 5.54627 26.0836 5.54627C25.5863 5.54627 25.0515 6.08317 25.0515 6.58242C25.0515 6.89204 25.3104 7.31764 25.5922 7.47113C25.9243 7.65201 26.2135 7.65337 26.5558 7.47541V7.47569ZM36.8749 52.1547C36.4512 51.5691 36.0742 51.0979 36.0372 51.1077C36.0001 51.1177 35.3247 51.5548 34.5364 52.0796C32.9914 53.1079 32.7769 53.2272 32.8568 53.0137C32.8844 52.9399 34.7971 46.7333 37.1071 39.2212C39.4172 31.7091 41.4758 25.0155 41.6819 24.3465C41.9221 23.5669 42.0828 23.178 42.1295 23.2633C42.1696 23.3365 42.6728 24.6208 43.2479 26.1174C43.8229 27.614 44.3334 28.9137 44.3824 29.0055C44.4423 29.118 44.4281 29.2957 44.3389 29.5495C44.266 29.7569 43.5658 32.251 42.7828 35.092C39.484 47.0619 37.796 53.0683 37.7052 53.1595C37.6723 53.1926 37.2986 52.7404 36.8749 52.1547H36.8749ZM43.3151 35.3916C44.1061 32.5342 44.7691 30.1803 44.7886 30.1607C44.808 30.1411 44.9209 30.3915 45.0395 30.717C45.6446 32.378 47.5018 37.1596 47.6717 37.494C47.779 37.7051 47.8317 37.9092 47.7888 37.9476C47.7157 38.0131 41.9834 40.587 41.9107 40.587C41.8922 40.587 42.5242 38.2491 43.3151 35.3916V35.3916Z" fill="white"/>
</svg>
